<mxfile host="app.diagrams.net" modified="2023-10-25T09:05:56.044Z" agent="Mozilla/5.0 (Macintosh; Intel Mac OS X 10_15_7) AppleWebKit/537.36 (KHTML, like Gecko) Chrome/118.0.0.0 Safari/537.36" etag="A77OI09pypF_fJfVvn50" version="22.0.7" type="github">
  <diagram name="Page-1" id="FUET0nqOS0AxgLeTutau">
    <mxGraphModel dx="855" dy="495" grid="0" gridSize="10" guides="1" tooltips="0" connect="1" arrows="1" fold="1" page="0" pageScale="1" pageWidth="850" pageHeight="1100" math="0" shadow="0">
      <root>
        <mxCell id="0" />
        <mxCell id="1" parent="0" />
        <mxCell id="fDdwfDi1KVoTNDwFbT7Y-1" value="" style="rounded=0;whiteSpace=wrap;html=1;" vertex="1" parent="1">
          <mxGeometry x="90" y="110" width="180" height="370" as="geometry" />
        </mxCell>
        <mxCell id="_ooLKEzHtDMGJBymx2Hy-1" value="maxBytes int64&lt;br&gt;缓存可存最大字节" style="rounded=0;whiteSpace=wrap;html=1;" parent="1" vertex="1">
          <mxGeometry x="107.5" y="140" width="145" height="50" as="geometry" />
        </mxCell>
        <mxCell id="fDdwfDi1KVoTNDwFbT7Y-2" value="" style="rounded=0;whiteSpace=wrap;html=1;fillColor=#dae8fc;strokeColor=#6c8ebf;" vertex="1" parent="1">
          <mxGeometry x="340" y="140" width="140" height="160" as="geometry" />
        </mxCell>
        <mxCell id="fDdwfDi1KVoTNDwFbT7Y-3" value="&lt;b&gt;Cache&lt;/b&gt;" style="text;html=1;align=center;verticalAlign=middle;resizable=0;points=[];autosize=1;strokeColor=none;fillColor=none;" vertex="1" parent="1">
          <mxGeometry x="150" y="110" width="60" height="30" as="geometry" />
        </mxCell>
        <mxCell id="fDdwfDi1KVoTNDwFbT7Y-4" value="nBytes int64&lt;br&gt;已使用字节" style="rounded=0;whiteSpace=wrap;html=1;" vertex="1" parent="1">
          <mxGeometry x="107.5" y="200" width="145" height="50" as="geometry" />
        </mxCell>
        <mxCell id="fDdwfDi1KVoTNDwFbT7Y-5" value="ll&amp;nbsp;*list.List&lt;br&gt;维护的双向链表" style="rounded=0;whiteSpace=wrap;html=1;fillColor=#dae8fc;strokeColor=#6c8ebf;" vertex="1" parent="1">
          <mxGeometry x="107.5" y="260" width="145" height="50" as="geometry" />
        </mxCell>
        <mxCell id="fDdwfDi1KVoTNDwFbT7Y-6" value="cache&amp;nbsp; &amp;nbsp; map[string]*list.Element&lt;br&gt;核心字典 value是链表结点" style="rounded=0;whiteSpace=wrap;html=1;fillColor=#f8cecc;strokeColor=#b85450;" vertex="1" parent="1">
          <mxGeometry x="107.5" y="320" width="145" height="60" as="geometry" />
        </mxCell>
        <mxCell id="fDdwfDi1KVoTNDwFbT7Y-7" value="OnEvicted&lt;br&gt;func(key string, value Value)&lt;br&gt;&lt;span style=&quot;background-color: rgb(255, 255, 255); color: rgb(8, 8, 8); font-family: Menlo-Regular, monospace; font-size: 9.8pt;&quot;&gt;某条记录被移除时的回调函数&lt;/span&gt;" style="rounded=0;whiteSpace=wrap;html=1;" vertex="1" parent="1">
          <mxGeometry x="102.5" y="390" width="155" height="60" as="geometry" />
        </mxCell>
        <mxCell id="fDdwfDi1KVoTNDwFbT7Y-8" value="&lt;b&gt;entry&lt;/b&gt;" style="text;html=1;align=center;verticalAlign=middle;resizable=0;points=[];autosize=1;strokeColor=none;fillColor=none;" vertex="1" parent="1">
          <mxGeometry x="385" y="140" width="50" height="30" as="geometry" />
        </mxCell>
        <mxCell id="fDdwfDi1KVoTNDwFbT7Y-9" value="key string&lt;br&gt;" style="rounded=0;whiteSpace=wrap;html=1;" vertex="1" parent="1">
          <mxGeometry x="350" y="170" width="120" height="40" as="geometry" />
        </mxCell>
        <mxCell id="fDdwfDi1KVoTNDwFbT7Y-10" value="value Value" style="rounded=0;whiteSpace=wrap;html=1;fillColor=#d5e8d4;strokeColor=#82b366;" vertex="1" parent="1">
          <mxGeometry x="350" y="220" width="120" height="40" as="geometry" />
        </mxCell>
        <mxCell id="fDdwfDi1KVoTNDwFbT7Y-11" value="&lt;b&gt;链表结点数据类型&lt;/b&gt;" style="text;html=1;align=center;verticalAlign=middle;resizable=0;points=[];autosize=1;strokeColor=none;fillColor=none;" vertex="1" parent="1">
          <mxGeometry x="350" y="270" width="120" height="30" as="geometry" />
        </mxCell>
        <mxCell id="fDdwfDi1KVoTNDwFbT7Y-13" value="" style="rounded=0;whiteSpace=wrap;html=1;fillColor=#d5e8d4;strokeColor=#82b366;" vertex="1" parent="1">
          <mxGeometry x="555" y="185" width="140" height="110" as="geometry" />
        </mxCell>
        <mxCell id="fDdwfDi1KVoTNDwFbT7Y-14" value="&lt;b&gt;Value interface{}&lt;/b&gt;" style="text;html=1;align=center;verticalAlign=middle;resizable=0;points=[];autosize=1;strokeColor=none;fillColor=none;" vertex="1" parent="1">
          <mxGeometry x="565" y="185" width="120" height="30" as="geometry" />
        </mxCell>
        <mxCell id="fDdwfDi1KVoTNDwFbT7Y-15" value="Len() int" style="rounded=0;whiteSpace=wrap;html=1;" vertex="1" parent="1">
          <mxGeometry x="565" y="215" width="120" height="40" as="geometry" />
        </mxCell>
        <mxCell id="fDdwfDi1KVoTNDwFbT7Y-17" value="&lt;b&gt;兼容链表结点Value接口&lt;/b&gt;" style="text;html=1;align=center;verticalAlign=middle;resizable=0;points=[];autosize=1;strokeColor=none;fillColor=none;" vertex="1" parent="1">
          <mxGeometry x="550" y="265" width="150" height="30" as="geometry" />
        </mxCell>
        <mxCell id="fDdwfDi1KVoTNDwFbT7Y-19" value="" style="endArrow=classic;html=1;rounded=0;entryX=0;entryY=0.5;entryDx=0;entryDy=0;" edge="1" parent="1" source="fDdwfDi1KVoTNDwFbT7Y-10" target="fDdwfDi1KVoTNDwFbT7Y-13">
          <mxGeometry width="50" height="50" relative="1" as="geometry">
            <mxPoint x="430" y="260" as="sourcePoint" />
            <mxPoint x="550" y="240" as="targetPoint" />
          </mxGeometry>
        </mxCell>
        <mxCell id="fDdwfDi1KVoTNDwFbT7Y-20" value="" style="endArrow=classic;html=1;rounded=0;entryX=0;entryY=0.5;entryDx=0;entryDy=0;exitX=1;exitY=0.5;exitDx=0;exitDy=0;" edge="1" parent="1" source="fDdwfDi1KVoTNDwFbT7Y-5" target="fDdwfDi1KVoTNDwFbT7Y-2">
          <mxGeometry width="50" height="50" relative="1" as="geometry">
            <mxPoint x="480" y="249" as="sourcePoint" />
            <mxPoint x="565" y="248" as="targetPoint" />
          </mxGeometry>
        </mxCell>
        <mxCell id="fDdwfDi1KVoTNDwFbT7Y-22" value="" style="rounded=0;whiteSpace=wrap;html=1;fillColor=#dae8fc;strokeColor=#6c8ebf;" vertex="1" parent="1">
          <mxGeometry x="110" y="546" width="140" height="137" as="geometry" />
        </mxCell>
        <mxCell id="fDdwfDi1KVoTNDwFbT7Y-23" value="&lt;b&gt;entry&lt;/b&gt;" style="text;html=1;align=center;verticalAlign=middle;resizable=0;points=[];autosize=1;strokeColor=none;fillColor=none;" vertex="1" parent="1">
          <mxGeometry x="155" y="546" width="50" height="30" as="geometry" />
        </mxCell>
        <mxCell id="fDdwfDi1KVoTNDwFbT7Y-24" value="key2" style="rounded=0;whiteSpace=wrap;html=1;fillColor=#fff2cc;strokeColor=#d6b656;" vertex="1" parent="1">
          <mxGeometry x="120" y="576" width="120" height="40" as="geometry" />
        </mxCell>
        <mxCell id="fDdwfDi1KVoTNDwFbT7Y-25" value="value Value" style="rounded=0;whiteSpace=wrap;html=1;fillColor=#d5e8d4;strokeColor=#82b366;" vertex="1" parent="1">
          <mxGeometry x="120" y="626" width="120" height="40" as="geometry" />
        </mxCell>
        <mxCell id="fDdwfDi1KVoTNDwFbT7Y-27" value="" style="rounded=0;whiteSpace=wrap;html=1;fillColor=#dae8fc;strokeColor=#6c8ebf;" vertex="1" parent="1">
          <mxGeometry x="295" y="546" width="140" height="138" as="geometry" />
        </mxCell>
        <mxCell id="fDdwfDi1KVoTNDwFbT7Y-28" value="&lt;b&gt;entry&lt;/b&gt;" style="text;html=1;align=center;verticalAlign=middle;resizable=0;points=[];autosize=1;strokeColor=none;fillColor=none;" vertex="1" parent="1">
          <mxGeometry x="340" y="546" width="50" height="30" as="geometry" />
        </mxCell>
        <mxCell id="fDdwfDi1KVoTNDwFbT7Y-29" value="key1" style="rounded=0;whiteSpace=wrap;html=1;fillColor=#fff2cc;strokeColor=#d6b656;" vertex="1" parent="1">
          <mxGeometry x="305" y="576" width="120" height="40" as="geometry" />
        </mxCell>
        <mxCell id="fDdwfDi1KVoTNDwFbT7Y-30" value="value Value" style="rounded=0;whiteSpace=wrap;html=1;fillColor=#d5e8d4;strokeColor=#82b366;" vertex="1" parent="1">
          <mxGeometry x="305" y="626" width="120" height="40" as="geometry" />
        </mxCell>
        <mxCell id="fDdwfDi1KVoTNDwFbT7Y-45" value="" style="endArrow=classic;html=1;rounded=0;entryX=0;entryY=0.25;entryDx=0;entryDy=0;exitX=1;exitY=0.25;exitDx=0;exitDy=0;" edge="1" parent="1" source="fDdwfDi1KVoTNDwFbT7Y-22" target="fDdwfDi1KVoTNDwFbT7Y-27">
          <mxGeometry width="50" height="50" relative="1" as="geometry">
            <mxPoint x="255" y="573" as="sourcePoint" />
            <mxPoint x="340" y="573" as="targetPoint" />
          </mxGeometry>
        </mxCell>
        <mxCell id="fDdwfDi1KVoTNDwFbT7Y-46" value="" style="endArrow=classic;html=1;rounded=0;entryX=1;entryY=0.75;entryDx=0;entryDy=0;exitX=0;exitY=0.75;exitDx=0;exitDy=0;" edge="1" parent="1" source="fDdwfDi1KVoTNDwFbT7Y-27" target="fDdwfDi1KVoTNDwFbT7Y-22">
          <mxGeometry width="50" height="50" relative="1" as="geometry">
            <mxPoint x="267" y="583" as="sourcePoint" />
            <mxPoint x="305" y="591" as="targetPoint" />
          </mxGeometry>
        </mxCell>
        <mxCell id="fDdwfDi1KVoTNDwFbT7Y-47" value="" style="rounded=0;whiteSpace=wrap;html=1;fillColor=#dae8fc;strokeColor=#6c8ebf;" vertex="1" parent="1">
          <mxGeometry x="480" y="546" width="140" height="137" as="geometry" />
        </mxCell>
        <mxCell id="fDdwfDi1KVoTNDwFbT7Y-48" value="&lt;b&gt;entry&lt;/b&gt;" style="text;html=1;align=center;verticalAlign=middle;resizable=0;points=[];autosize=1;strokeColor=none;fillColor=none;" vertex="1" parent="1">
          <mxGeometry x="525" y="546" width="50" height="30" as="geometry" />
        </mxCell>
        <mxCell id="fDdwfDi1KVoTNDwFbT7Y-49" value="key3" style="rounded=0;whiteSpace=wrap;html=1;fillColor=#fff2cc;strokeColor=#d6b656;" vertex="1" parent="1">
          <mxGeometry x="490" y="576" width="120" height="40" as="geometry" />
        </mxCell>
        <mxCell id="fDdwfDi1KVoTNDwFbT7Y-50" value="value Value" style="rounded=0;whiteSpace=wrap;html=1;fillColor=#d5e8d4;strokeColor=#82b366;" vertex="1" parent="1">
          <mxGeometry x="490" y="626" width="120" height="40" as="geometry" />
        </mxCell>
        <mxCell id="fDdwfDi1KVoTNDwFbT7Y-51" value="" style="rounded=0;whiteSpace=wrap;html=1;fillColor=#dae8fc;strokeColor=#6c8ebf;" vertex="1" parent="1">
          <mxGeometry x="665" y="546" width="140" height="138" as="geometry" />
        </mxCell>
        <mxCell id="fDdwfDi1KVoTNDwFbT7Y-52" value="&lt;b&gt;entry&lt;/b&gt;" style="text;html=1;align=center;verticalAlign=middle;resizable=0;points=[];autosize=1;strokeColor=none;fillColor=none;" vertex="1" parent="1">
          <mxGeometry x="710" y="546" width="50" height="30" as="geometry" />
        </mxCell>
        <mxCell id="fDdwfDi1KVoTNDwFbT7Y-53" value="key4" style="rounded=0;whiteSpace=wrap;html=1;fillColor=#fff2cc;strokeColor=#d6b656;" vertex="1" parent="1">
          <mxGeometry x="675" y="576" width="120" height="40" as="geometry" />
        </mxCell>
        <mxCell id="fDdwfDi1KVoTNDwFbT7Y-54" value="value Value" style="rounded=0;whiteSpace=wrap;html=1;fillColor=#d5e8d4;strokeColor=#82b366;" vertex="1" parent="1">
          <mxGeometry x="675" y="626" width="120" height="40" as="geometry" />
        </mxCell>
        <mxCell id="fDdwfDi1KVoTNDwFbT7Y-55" value="" style="endArrow=classic;html=1;rounded=0;entryX=0;entryY=0.25;entryDx=0;entryDy=0;exitX=1;exitY=0.25;exitDx=0;exitDy=0;" edge="1" parent="1" source="fDdwfDi1KVoTNDwFbT7Y-47" target="fDdwfDi1KVoTNDwFbT7Y-51">
          <mxGeometry width="50" height="50" relative="1" as="geometry">
            <mxPoint x="625" y="573" as="sourcePoint" />
            <mxPoint x="710" y="573" as="targetPoint" />
          </mxGeometry>
        </mxCell>
        <mxCell id="fDdwfDi1KVoTNDwFbT7Y-56" value="" style="endArrow=classic;html=1;rounded=0;entryX=1;entryY=0.75;entryDx=0;entryDy=0;exitX=0;exitY=0.75;exitDx=0;exitDy=0;" edge="1" parent="1" source="fDdwfDi1KVoTNDwFbT7Y-51" target="fDdwfDi1KVoTNDwFbT7Y-47">
          <mxGeometry width="50" height="50" relative="1" as="geometry">
            <mxPoint x="637" y="583" as="sourcePoint" />
            <mxPoint x="675" y="591" as="targetPoint" />
          </mxGeometry>
        </mxCell>
        <mxCell id="fDdwfDi1KVoTNDwFbT7Y-57" value="" style="endArrow=classic;html=1;rounded=0;entryX=0;entryY=0.25;entryDx=0;entryDy=0;exitX=1;exitY=0.25;exitDx=0;exitDy=0;" edge="1" parent="1">
          <mxGeometry width="50" height="50" relative="1" as="geometry">
            <mxPoint x="435" y="580" as="sourcePoint" />
            <mxPoint x="480" y="581" as="targetPoint" />
          </mxGeometry>
        </mxCell>
        <mxCell id="fDdwfDi1KVoTNDwFbT7Y-58" value="" style="endArrow=classic;html=1;rounded=0;entryX=1;entryY=0.75;entryDx=0;entryDy=0;exitX=0;exitY=0.75;exitDx=0;exitDy=0;" edge="1" parent="1">
          <mxGeometry width="50" height="50" relative="1" as="geometry">
            <mxPoint x="480" y="650" as="sourcePoint" />
            <mxPoint x="435" y="649" as="targetPoint" />
          </mxGeometry>
        </mxCell>
        <mxCell id="fDdwfDi1KVoTNDwFbT7Y-59" value="&lt;b&gt;Front&lt;/b&gt;" style="text;html=1;align=center;verticalAlign=middle;resizable=0;points=[];autosize=1;strokeColor=none;fillColor=none;" vertex="1" parent="1">
          <mxGeometry x="84" y="515" width="49" height="26" as="geometry" />
        </mxCell>
        <mxCell id="fDdwfDi1KVoTNDwFbT7Y-60" value="&lt;b&gt;Back&lt;/b&gt;" style="text;html=1;align=center;verticalAlign=middle;resizable=0;points=[];autosize=1;strokeColor=none;fillColor=none;" vertex="1" parent="1">
          <mxGeometry x="772" y="515" width="47" height="26" as="geometry" />
        </mxCell>
        <mxCell id="fDdwfDi1KVoTNDwFbT7Y-61" value="&lt;b&gt;Add&lt;/b&gt;" style="text;html=1;align=center;verticalAlign=middle;resizable=0;points=[];autosize=1;strokeColor=none;fillColor=none;" vertex="1" parent="1">
          <mxGeometry x="43" y="604" width="41" height="26" as="geometry" />
        </mxCell>
        <mxCell id="fDdwfDi1KVoTNDwFbT7Y-62" value="&lt;b&gt;Remove&lt;/b&gt;" style="text;html=1;align=center;verticalAlign=middle;resizable=0;points=[];autosize=1;strokeColor=none;fillColor=none;" vertex="1" parent="1">
          <mxGeometry x="812" y="600" width="65" height="26" as="geometry" />
        </mxCell>
        <mxCell id="fDdwfDi1KVoTNDwFbT7Y-64" value="" style="rounded=0;whiteSpace=wrap;html=1;fillColor=#f8cecc;strokeColor=#b85450;" vertex="1" parent="1">
          <mxGeometry x="290" y="771" width="313.5" height="79" as="geometry" />
        </mxCell>
        <mxCell id="fDdwfDi1KVoTNDwFbT7Y-66" value="key1" style="rounded=0;whiteSpace=wrap;html=1;fillColor=#fff2cc;strokeColor=#d6b656;" vertex="1" parent="1">
          <mxGeometry x="301" y="785" width="60.5" height="40" as="geometry" />
        </mxCell>
        <mxCell id="fDdwfDi1KVoTNDwFbT7Y-67" value="key2" style="rounded=0;whiteSpace=wrap;html=1;fillColor=#fff2cc;strokeColor=#d6b656;" vertex="1" parent="1">
          <mxGeometry x="379.5" y="785" width="60.5" height="40" as="geometry" />
        </mxCell>
        <mxCell id="fDdwfDi1KVoTNDwFbT7Y-69" value="key3" style="rounded=0;whiteSpace=wrap;html=1;fillColor=#fff2cc;strokeColor=#d6b656;" vertex="1" parent="1">
          <mxGeometry x="457.5" y="785" width="60.5" height="40" as="geometry" />
        </mxCell>
        <mxCell id="fDdwfDi1KVoTNDwFbT7Y-70" value="key4" style="rounded=0;whiteSpace=wrap;html=1;fillColor=#fff2cc;strokeColor=#d6b656;" vertex="1" parent="1">
          <mxGeometry x="536" y="785" width="60.5" height="40" as="geometry" />
        </mxCell>
        <mxCell id="fDdwfDi1KVoTNDwFbT7Y-71" value="&lt;b&gt;cache map[string] *list.Element&lt;/b&gt;" style="text;html=1;align=center;verticalAlign=middle;resizable=0;points=[];autosize=1;strokeColor=none;fillColor=none;" vertex="1" parent="1">
          <mxGeometry x="337.5" y="825" width="197" height="26" as="geometry" />
        </mxCell>
        <mxCell id="fDdwfDi1KVoTNDwFbT7Y-73" value="" style="endArrow=classic;html=1;rounded=0;entryX=0.5;entryY=1;entryDx=0;entryDy=0;" edge="1" parent="1" source="fDdwfDi1KVoTNDwFbT7Y-66" target="fDdwfDi1KVoTNDwFbT7Y-27">
          <mxGeometry width="50" height="50" relative="1" as="geometry">
            <mxPoint x="320" y="800" as="sourcePoint" />
            <mxPoint x="370" y="750" as="targetPoint" />
          </mxGeometry>
        </mxCell>
        <mxCell id="fDdwfDi1KVoTNDwFbT7Y-74" value="" style="endArrow=classic;html=1;rounded=0;entryX=0.5;entryY=1;entryDx=0;entryDy=0;exitX=0.5;exitY=0;exitDx=0;exitDy=0;" edge="1" parent="1" source="fDdwfDi1KVoTNDwFbT7Y-67" target="fDdwfDi1KVoTNDwFbT7Y-22">
          <mxGeometry width="50" height="50" relative="1" as="geometry">
            <mxPoint x="347" y="795" as="sourcePoint" />
            <mxPoint x="375" y="694" as="targetPoint" />
          </mxGeometry>
        </mxCell>
        <mxCell id="fDdwfDi1KVoTNDwFbT7Y-75" value="" style="endArrow=classic;html=1;rounded=0;entryX=0.5;entryY=1;entryDx=0;entryDy=0;exitX=0.5;exitY=0;exitDx=0;exitDy=0;" edge="1" parent="1" source="fDdwfDi1KVoTNDwFbT7Y-69" target="fDdwfDi1KVoTNDwFbT7Y-47">
          <mxGeometry width="50" height="50" relative="1" as="geometry">
            <mxPoint x="357" y="805" as="sourcePoint" />
            <mxPoint x="385" y="704" as="targetPoint" />
          </mxGeometry>
        </mxCell>
        <mxCell id="fDdwfDi1KVoTNDwFbT7Y-76" value="" style="endArrow=classic;html=1;rounded=0;entryX=0.5;entryY=1;entryDx=0;entryDy=0;exitX=0.5;exitY=0;exitDx=0;exitDy=0;" edge="1" parent="1" source="fDdwfDi1KVoTNDwFbT7Y-70" target="fDdwfDi1KVoTNDwFbT7Y-51">
          <mxGeometry width="50" height="50" relative="1" as="geometry">
            <mxPoint x="367" y="815" as="sourcePoint" />
            <mxPoint x="395" y="714" as="targetPoint" />
          </mxGeometry>
        </mxCell>
        <mxCell id="fDdwfDi1KVoTNDwFbT7Y-77" value="&lt;b&gt;映射&lt;/b&gt;" style="text;html=1;align=center;verticalAlign=middle;resizable=0;points=[];autosize=1;strokeColor=none;fillColor=none;" vertex="1" parent="1">
          <mxGeometry x="665" y="723" width="42" height="26" as="geometry" />
        </mxCell>
        <mxCell id="fDdwfDi1KVoTNDwFbT7Y-78" value="&lt;b&gt;ll&amp;nbsp;*list.List&lt;/b&gt;" style="text;html=1;align=center;verticalAlign=middle;resizable=0;points=[];autosize=1;strokeColor=none;fillColor=none;" vertex="1" parent="1">
          <mxGeometry x="414" y="512" width="75" height="26" as="geometry" />
        </mxCell>
        <mxCell id="fDdwfDi1KVoTNDwFbT7Y-79" value="" style="rounded=0;whiteSpace=wrap;html=1;fillColor=#dae8fc;strokeColor=#6c8ebf;" vertex="1" parent="1">
          <mxGeometry x="104" y="948" width="140" height="137" as="geometry" />
        </mxCell>
        <mxCell id="fDdwfDi1KVoTNDwFbT7Y-80" value="&lt;b&gt;entry&lt;/b&gt;" style="text;html=1;align=center;verticalAlign=middle;resizable=0;points=[];autosize=1;strokeColor=none;fillColor=none;" vertex="1" parent="1">
          <mxGeometry x="149" y="948" width="50" height="30" as="geometry" />
        </mxCell>
        <mxCell id="fDdwfDi1KVoTNDwFbT7Y-81" value="key1" style="rounded=0;whiteSpace=wrap;html=1;fillColor=#fff2cc;strokeColor=#d6b656;" vertex="1" parent="1">
          <mxGeometry x="114" y="978" width="120" height="40" as="geometry" />
        </mxCell>
        <mxCell id="fDdwfDi1KVoTNDwFbT7Y-82" value="value Value" style="rounded=0;whiteSpace=wrap;html=1;fillColor=#d5e8d4;strokeColor=#82b366;" vertex="1" parent="1">
          <mxGeometry x="114" y="1028" width="120" height="40" as="geometry" />
        </mxCell>
        <mxCell id="fDdwfDi1KVoTNDwFbT7Y-83" value="" style="rounded=0;whiteSpace=wrap;html=1;fillColor=#dae8fc;strokeColor=#6c8ebf;" vertex="1" parent="1">
          <mxGeometry x="289" y="948" width="140" height="138" as="geometry" />
        </mxCell>
        <mxCell id="fDdwfDi1KVoTNDwFbT7Y-84" value="&lt;b&gt;entry&lt;/b&gt;" style="text;html=1;align=center;verticalAlign=middle;resizable=0;points=[];autosize=1;strokeColor=none;fillColor=none;" vertex="1" parent="1">
          <mxGeometry x="334" y="948" width="50" height="30" as="geometry" />
        </mxCell>
        <mxCell id="fDdwfDi1KVoTNDwFbT7Y-85" value="key2" style="rounded=0;whiteSpace=wrap;html=1;fillColor=#fff2cc;strokeColor=#d6b656;" vertex="1" parent="1">
          <mxGeometry x="299" y="978" width="120" height="40" as="geometry" />
        </mxCell>
        <mxCell id="fDdwfDi1KVoTNDwFbT7Y-86" value="value Value" style="rounded=0;whiteSpace=wrap;html=1;fillColor=#d5e8d4;strokeColor=#82b366;" vertex="1" parent="1">
          <mxGeometry x="299" y="1028" width="120" height="40" as="geometry" />
        </mxCell>
        <mxCell id="fDdwfDi1KVoTNDwFbT7Y-87" value="" style="endArrow=classic;html=1;rounded=0;entryX=0;entryY=0.25;entryDx=0;entryDy=0;exitX=1;exitY=0.25;exitDx=0;exitDy=0;" edge="1" parent="1" source="fDdwfDi1KVoTNDwFbT7Y-79" target="fDdwfDi1KVoTNDwFbT7Y-83">
          <mxGeometry width="50" height="50" relative="1" as="geometry">
            <mxPoint x="249" y="975" as="sourcePoint" />
            <mxPoint x="334" y="975" as="targetPoint" />
          </mxGeometry>
        </mxCell>
        <mxCell id="fDdwfDi1KVoTNDwFbT7Y-88" value="" style="endArrow=classic;html=1;rounded=0;entryX=1;entryY=0.75;entryDx=0;entryDy=0;exitX=0;exitY=0.75;exitDx=0;exitDy=0;" edge="1" parent="1" source="fDdwfDi1KVoTNDwFbT7Y-83" target="fDdwfDi1KVoTNDwFbT7Y-79">
          <mxGeometry width="50" height="50" relative="1" as="geometry">
            <mxPoint x="261" y="985" as="sourcePoint" />
            <mxPoint x="299" y="993" as="targetPoint" />
          </mxGeometry>
        </mxCell>
        <mxCell id="fDdwfDi1KVoTNDwFbT7Y-89" value="" style="rounded=0;whiteSpace=wrap;html=1;fillColor=#dae8fc;strokeColor=#6c8ebf;" vertex="1" parent="1">
          <mxGeometry x="474" y="948" width="140" height="137" as="geometry" />
        </mxCell>
        <mxCell id="fDdwfDi1KVoTNDwFbT7Y-90" value="&lt;b&gt;entry&lt;/b&gt;" style="text;html=1;align=center;verticalAlign=middle;resizable=0;points=[];autosize=1;strokeColor=none;fillColor=none;" vertex="1" parent="1">
          <mxGeometry x="519" y="948" width="50" height="30" as="geometry" />
        </mxCell>
        <mxCell id="fDdwfDi1KVoTNDwFbT7Y-91" value="key3" style="rounded=0;whiteSpace=wrap;html=1;fillColor=#fff2cc;strokeColor=#d6b656;" vertex="1" parent="1">
          <mxGeometry x="484" y="978" width="120" height="40" as="geometry" />
        </mxCell>
        <mxCell id="fDdwfDi1KVoTNDwFbT7Y-92" value="value Value" style="rounded=0;whiteSpace=wrap;html=1;fillColor=#d5e8d4;strokeColor=#82b366;" vertex="1" parent="1">
          <mxGeometry x="484" y="1028" width="120" height="40" as="geometry" />
        </mxCell>
        <mxCell id="fDdwfDi1KVoTNDwFbT7Y-93" value="" style="rounded=0;whiteSpace=wrap;html=1;fillColor=#dae8fc;strokeColor=#6c8ebf;" vertex="1" parent="1">
          <mxGeometry x="659" y="948" width="140" height="138" as="geometry" />
        </mxCell>
        <mxCell id="fDdwfDi1KVoTNDwFbT7Y-94" value="&lt;b&gt;entry&lt;/b&gt;" style="text;html=1;align=center;verticalAlign=middle;resizable=0;points=[];autosize=1;strokeColor=none;fillColor=none;" vertex="1" parent="1">
          <mxGeometry x="704" y="948" width="50" height="30" as="geometry" />
        </mxCell>
        <mxCell id="fDdwfDi1KVoTNDwFbT7Y-95" value="key4" style="rounded=0;whiteSpace=wrap;html=1;fillColor=#fff2cc;strokeColor=#d6b656;" vertex="1" parent="1">
          <mxGeometry x="669" y="978" width="120" height="40" as="geometry" />
        </mxCell>
        <mxCell id="fDdwfDi1KVoTNDwFbT7Y-96" value="value Value" style="rounded=0;whiteSpace=wrap;html=1;fillColor=#d5e8d4;strokeColor=#82b366;" vertex="1" parent="1">
          <mxGeometry x="669" y="1028" width="120" height="40" as="geometry" />
        </mxCell>
        <mxCell id="fDdwfDi1KVoTNDwFbT7Y-97" value="" style="endArrow=classic;html=1;rounded=0;entryX=0;entryY=0.25;entryDx=0;entryDy=0;exitX=1;exitY=0.25;exitDx=0;exitDy=0;" edge="1" parent="1" source="fDdwfDi1KVoTNDwFbT7Y-89" target="fDdwfDi1KVoTNDwFbT7Y-93">
          <mxGeometry width="50" height="50" relative="1" as="geometry">
            <mxPoint x="619" y="975" as="sourcePoint" />
            <mxPoint x="704" y="975" as="targetPoint" />
          </mxGeometry>
        </mxCell>
        <mxCell id="fDdwfDi1KVoTNDwFbT7Y-98" value="" style="endArrow=classic;html=1;rounded=0;entryX=1;entryY=0.75;entryDx=0;entryDy=0;exitX=0;exitY=0.75;exitDx=0;exitDy=0;" edge="1" parent="1" source="fDdwfDi1KVoTNDwFbT7Y-93" target="fDdwfDi1KVoTNDwFbT7Y-89">
          <mxGeometry width="50" height="50" relative="1" as="geometry">
            <mxPoint x="631" y="985" as="sourcePoint" />
            <mxPoint x="669" y="993" as="targetPoint" />
          </mxGeometry>
        </mxCell>
        <mxCell id="fDdwfDi1KVoTNDwFbT7Y-99" value="" style="endArrow=classic;html=1;rounded=0;entryX=0;entryY=0.25;entryDx=0;entryDy=0;exitX=1;exitY=0.25;exitDx=0;exitDy=0;" edge="1" parent="1">
          <mxGeometry width="50" height="50" relative="1" as="geometry">
            <mxPoint x="429" y="982" as="sourcePoint" />
            <mxPoint x="474" y="983" as="targetPoint" />
          </mxGeometry>
        </mxCell>
        <mxCell id="fDdwfDi1KVoTNDwFbT7Y-100" value="" style="endArrow=classic;html=1;rounded=0;entryX=1;entryY=0.75;entryDx=0;entryDy=0;exitX=0;exitY=0.75;exitDx=0;exitDy=0;" edge="1" parent="1">
          <mxGeometry width="50" height="50" relative="1" as="geometry">
            <mxPoint x="474" y="1052" as="sourcePoint" />
            <mxPoint x="429" y="1051" as="targetPoint" />
          </mxGeometry>
        </mxCell>
        <mxCell id="fDdwfDi1KVoTNDwFbT7Y-101" value="&lt;b&gt;Front&lt;/b&gt;" style="text;html=1;align=center;verticalAlign=middle;resizable=0;points=[];autosize=1;strokeColor=none;fillColor=none;" vertex="1" parent="1">
          <mxGeometry x="78" y="917" width="49" height="26" as="geometry" />
        </mxCell>
        <mxCell id="fDdwfDi1KVoTNDwFbT7Y-102" value="&lt;b&gt;Back&lt;/b&gt;" style="text;html=1;align=center;verticalAlign=middle;resizable=0;points=[];autosize=1;strokeColor=none;fillColor=none;" vertex="1" parent="1">
          <mxGeometry x="766" y="917" width="47" height="26" as="geometry" />
        </mxCell>
        <mxCell id="fDdwfDi1KVoTNDwFbT7Y-103" value="&lt;b&gt;Add&lt;/b&gt;" style="text;html=1;align=center;verticalAlign=middle;resizable=0;points=[];autosize=1;strokeColor=none;fillColor=none;" vertex="1" parent="1">
          <mxGeometry x="37" y="1006" width="41" height="26" as="geometry" />
        </mxCell>
        <mxCell id="fDdwfDi1KVoTNDwFbT7Y-104" value="&lt;b&gt;Remove&lt;/b&gt;" style="text;html=1;align=center;verticalAlign=middle;resizable=0;points=[];autosize=1;strokeColor=none;fillColor=none;" vertex="1" parent="1">
          <mxGeometry x="806" y="1002" width="65" height="26" as="geometry" />
        </mxCell>
        <mxCell id="fDdwfDi1KVoTNDwFbT7Y-105" value="" style="rounded=0;whiteSpace=wrap;html=1;fillColor=#f8cecc;strokeColor=#b85450;" vertex="1" parent="1">
          <mxGeometry x="454" y="1125" width="160" height="136" as="geometry" />
        </mxCell>
        <mxCell id="fDdwfDi1KVoTNDwFbT7Y-106" value="key1" style="rounded=0;whiteSpace=wrap;html=1;fillColor=#fff2cc;strokeColor=#d6b656;" vertex="1" parent="1">
          <mxGeometry x="464" y="1135" width="60.5" height="40" as="geometry" />
        </mxCell>
        <mxCell id="fDdwfDi1KVoTNDwFbT7Y-107" value="key2" style="rounded=0;whiteSpace=wrap;html=1;fillColor=#fff2cc;strokeColor=#d6b656;" vertex="1" parent="1">
          <mxGeometry x="542" y="1135" width="60.5" height="40" as="geometry" />
        </mxCell>
        <mxCell id="fDdwfDi1KVoTNDwFbT7Y-108" value="key3" style="rounded=0;whiteSpace=wrap;html=1;fillColor=#fff2cc;strokeColor=#d6b656;" vertex="1" parent="1">
          <mxGeometry x="464" y="1187" width="60.5" height="40" as="geometry" />
        </mxCell>
        <mxCell id="fDdwfDi1KVoTNDwFbT7Y-109" value="key4" style="rounded=0;whiteSpace=wrap;html=1;fillColor=#fff2cc;strokeColor=#d6b656;" vertex="1" parent="1">
          <mxGeometry x="542" y="1187" width="60.5" height="40" as="geometry" />
        </mxCell>
        <mxCell id="fDdwfDi1KVoTNDwFbT7Y-110" value="&lt;b&gt;cache 主字典&lt;/b&gt;" style="text;html=1;align=center;verticalAlign=middle;resizable=0;points=[];autosize=1;strokeColor=none;fillColor=none;" vertex="1" parent="1">
          <mxGeometry x="486" y="1231" width="91" height="26" as="geometry" />
        </mxCell>
        <mxCell id="fDdwfDi1KVoTNDwFbT7Y-116" value="&lt;b&gt;ll&amp;nbsp;*list.List&lt;/b&gt;" style="text;html=1;align=center;verticalAlign=middle;resizable=0;points=[];autosize=1;strokeColor=none;fillColor=none;" vertex="1" parent="1">
          <mxGeometry x="408" y="914" width="75" height="26" as="geometry" />
        </mxCell>
        <mxCell id="fDdwfDi1KVoTNDwFbT7Y-118" value="RemoveOldest()" style="rounded=0;whiteSpace=wrap;html=1;fillColor=#f8cecc;strokeColor=#b85450;" vertex="1" parent="1">
          <mxGeometry x="657" y="1146" width="142" height="48.5" as="geometry" />
        </mxCell>
        <mxCell id="fDdwfDi1KVoTNDwFbT7Y-122" value="" style="endArrow=classic;html=1;rounded=0;entryX=0.5;entryY=1;entryDx=0;entryDy=0;" edge="1" parent="1" source="fDdwfDi1KVoTNDwFbT7Y-118" target="fDdwfDi1KVoTNDwFbT7Y-93">
          <mxGeometry width="50" height="50" relative="1" as="geometry">
            <mxPoint x="525.5" y="1200.75" as="sourcePoint" />
            <mxPoint x="712.5" y="1110.75" as="targetPoint" />
          </mxGeometry>
        </mxCell>
        <mxCell id="fDdwfDi1KVoTNDwFbT7Y-123" value="&lt;b&gt;直接定位表尾&lt;/b&gt;" style="text;html=1;align=center;verticalAlign=middle;resizable=0;points=[];autosize=1;strokeColor=none;fillColor=none;" vertex="1" parent="1">
          <mxGeometry x="726" y="1104" width="90" height="26" as="geometry" />
        </mxCell>
        <mxCell id="fDdwfDi1KVoTNDwFbT7Y-126" value="" style="endArrow=classic;html=1;rounded=0;" edge="1" parent="1" source="fDdwfDi1KVoTNDwFbT7Y-95" target="fDdwfDi1KVoTNDwFbT7Y-106">
          <mxGeometry width="50" height="50" relative="1" as="geometry">
            <mxPoint x="738" y="1156" as="sourcePoint" />
            <mxPoint x="739" y="1096" as="targetPoint" />
            <Array as="points">
              <mxPoint x="659" y="1103" />
            </Array>
          </mxGeometry>
        </mxCell>
        <mxCell id="fDdwfDi1KVoTNDwFbT7Y-127" value="&lt;b&gt;获取表尾key&lt;/b&gt;" style="text;html=1;align=center;verticalAlign=middle;resizable=0;points=[];autosize=1;strokeColor=none;fillColor=none;" vertex="1" parent="1">
          <mxGeometry x="529.25" y="1094" width="86" height="26" as="geometry" />
        </mxCell>
        <mxCell id="fDdwfDi1KVoTNDwFbT7Y-128" value="" style="endArrow=none;html=1;rounded=0;" edge="1" parent="1">
          <mxGeometry width="50" height="50" relative="1" as="geometry">
            <mxPoint x="319" y="1217" as="sourcePoint" />
            <mxPoint x="263" y="1169" as="targetPoint" />
          </mxGeometry>
        </mxCell>
        <mxCell id="fDdwfDi1KVoTNDwFbT7Y-129" value="" style="endArrow=none;html=1;rounded=0;" edge="1" parent="1">
          <mxGeometry width="50" height="50" relative="1" as="geometry">
            <mxPoint x="264" y="1216" as="sourcePoint" />
            <mxPoint x="314" y="1166" as="targetPoint" />
          </mxGeometry>
        </mxCell>
      </root>
    </mxGraphModel>
  </diagram>
</mxfile>
